# xmcd
#
# Track frame offsets:
#	150
#	17932
#	38349
#	60946
#	81834
#	108985
#	129619
#	152891
#	174812
#	207110
#
# Disc length: 3083 seconds
#
# Revision: 0
# Processed by: cddbd v1.5.2PL0 Copyright (c) Steve Scherf et al.
# Submitted via: EZCDAudioConverter 4.0.8.1
#
DISCID=710c090a
DTITLE=Will Downing - Black Pearls
DYEAR=2016
DGENRE=R&B
TTITLE0=Everything I Miss At Home
TTITLE1=Don't Ask My Neighbors
TTITLE2=Your Smile
TTITLE3=Get Here
TTITLE4=Street Life
TTITLE5=Everlasting Love
TTITLE6=Black Butterfly
TTITLE7=Nights Over Eygpt
TTITLE8=Meet Me On The Moon
TTITLE9=Don't Let It Go To Your Head
EXTD=
EXTT0=
EXTT1=
EXTT2=
EXTT3=
EXTT4=
EXTT5=
EXTT6=
EXTT7=
EXTT8=
EXTT9=
PLAYORDER=
